# xmcd
#
# Track frame offsets: 
#        150
#        28314
#        38820
#        53454
#        71552
#        82094
#        92305
#        104783
#        114332
#        139411
#        156849
#        180061
#        193242
#        227306
#        239136
#        262156
#
# Disc length: 3626 seconds
#
# Revision: 0
# Processed by: cddbd v1.5.2PL0 Copyright (c) Steve Scherf et al.
# Submitted via: ExactAudioCopy v1.0b2
#
DISCID=db0e2810
DTITLE=卢秋萍 - 粤剧名曲精选
DYEAR=1900
DGENRE=
TTITLE0=卖花
TTITLE1=鲜荔寄乡情
TTITLE2=双飞燕
TTITLE3=丝竹情
TTITLE4=红娘新唱
TTITLE5=放烟花
TTITLE6=红楼夜泳
TTITLE7=游龙戏凤
TTITLE8=织女悲歌
TTITLE9=宫墙柳
TTITLE10=昭君出塞
TTITLE11=换季歌
TTITLE12=鲤鱼仙子
TTITLE13=青春赋
TTITLE14=文君琴怨
TTITLE15=唐伯虎点秋香之庙遇
EXTD=
EXTT0=
EXTT1=
EXTT2=
EXTT3=
EXTT4=
EXTT5=
EXTT6=
EXTT7=
EXTT8=
EXTT9=
EXTT10=
EXTT11=
EXTT12=
EXTT13=
EXTT14=
EXTT15=
PLAYORDER=
